<svg xmlns="http://www.w3.org/2000/svg" width="26" height="16" viewBox="0 0 26 16">
  <g id="Group_337" transform="translate(-12 -15.896)">
    <path id="Path_50" data-name="Path 50" d="M36.413,24.479h5c.509,0,0,.491,0,1s.509,1,0,1h-5a1,1,0,0,1,0-2Zm-16,0h5c3.031,0,5,1.587,5,4,0,1.656-1.4,3.762-3,4h0a4.358,4.358,0,0,1,4,4c0,2.737-2.665,4-6,4h-5a2.262,2.262,0,0,1-2-2v-12A2.262,2.262,0,0,1,20.413,24.479Zm2,3v4h2c1.766,0,3-.745,3-2s-1.44-2-3-2Zm17,1c3.519,0,5,2.212,5,6v1h-8a2.958,2.958,0,0,0,3,3c1.244,0,1.664-.211,2-1h3c-.476,2.253-2.076,3-5,3-3.637,0-6-2.125-6-6S35.862,28.479,39.413,28.479Zm0,2a3.306,3.306,0,0,0-3,3h5C41.346,31.9,40.884,30.479,39.413,30.479Zm-17,3v5h2a2.976,2.976,0,0,0,3-3c0-1.431-1.074-2-3-2Z" transform="translate(-6.413 -8.583)" fill="#fff"/>
  </g>
</svg>
