<svg xmlns="http://www.w3.org/2000/svg" width="25.854" height="25.854" viewBox="0 0 25.854 25.854">
  <path id="icons8-dribbble" d="M18.927,6A12.927,12.927,0,1,0,31.854,18.927,12.927,12.927,0,0,0,18.927,6Zm8.695,6.3A10.88,10.88,0,0,1,29.859,18.7a19.5,19.5,0,0,0-7.536-.076c-.326-.757-.669-1.512-1.037-2.261A20.227,20.227,0,0,0,27.622,12.3Zm-1.353-1.475a18.812,18.812,0,0,1-5.92,3.728A50.736,50.736,0,0,0,16.342,8.3a10.908,10.908,0,0,1,9.927,2.525ZM14.365,8.99a48.605,48.605,0,0,1,4.092,6.246A30.152,30.152,0,0,1,8.263,16.5,10.976,10.976,0,0,1,14.365,8.99ZM7.989,18.927c0-.149.005-.3.011-.445.553.023,1.1.038,1.626.038a31.208,31.208,0,0,0,9.787-1.466c.344.691.665,1.387.971,2.085a20.282,20.282,0,0,0-9.5,7.2A10.9,10.9,0,0,1,7.989,18.927Zm4.377,8.746c2.913-3.775,5.9-5.765,8.778-6.7a38.12,38.12,0,0,1,2.18,7.967,10.911,10.911,0,0,1-10.958-1.267Zm12.808.226a40.638,40.638,0,0,0-2.086-7.407,17.939,17.939,0,0,1,6.633.2A10.952,10.952,0,0,1,25.174,27.9Z" transform="translate(-6 -6)" fill="#fff"/>
</svg>
